<?xml version="1.0" encoding="UTF-8"?>
<svg version="1.1" xmlns="http://www.w3.org/2000/svg" width="190" height="42">
<path d="M0 0 C1.98 0 3.96 0 6 0 C6 1.98 6 3.96 6 6 C6.515625 5.649375 7.03125 5.29875 7.5625 4.9375 C11.0507008 3.59588431 13.42525344 4.07321385 17 5 C18.3125 7 18.3125 7 19 9 C19.66 9.33 20.32 9.66 21 10 C21 9.34 21 8.68 21 8 C23.66666667 8.66666667 26.33333333 9.33333333 29 10 C29 11.32 29 12.64 29 14 C29.66 14 30.32 14 31 14 C31 15.32 31 16.64 31 18 C30.34 18 29.68 18 29 18 C28.505 20.475 28.505 20.475 28 23 C24.26513121 23.5745952 20.78706732 24 17 24 C14.36375566 25.89229266 14.36375566 25.89229266 12 28 C9.17998673 29.41000664 7.12992745 29.24548451 4 29 C1.125 27.5 1.125 27.5 -1 26 C-1.33 27.32 -1.66 28.64 -2 30 C-3.98 30 -5.96 30 -8 30 C-7.04324324 20.43243243 -7.04324324 20.43243243 -5 18 C-1.9000132 17.20851401 0.80525245 17 4 17 C3.57807976 14.04655832 3.09310219 12.14151532 1.4375 9.625 C-0.3974245 6.27426831 -0.22124427 3.76115263 0 0 Z M2 2 C2.40208382 7.62917348 4.28930302 10.00386479 8 14 C8.33 13.01 8.66 12.02 9 11 C9.99 11 10.98 11 12 11 C11.67 12.32 11.34 13.64 11 15 C11.99 15 12.98 15 14 15 C14.33 15.66 14.66 16.32 15 17 C15 16.01 15 15.02 15 14 C15.66 13.67 16.32 13.34 17 13 C15.68 13 14.36 13 13 13 C13 12.01 13 11.02 13 10 C14.32 10.33 15.64 10.66 17 11 C16.34 9.68 15.68 8.36 15 7 C11.7 7 8.4 7 5 7 C4.34 5.35 3.68 3.7 3 2 C2.67 2 2.34 2 2 2 Z M21 14 C20.67 14.99 20.34 15.98 20 17 C21.98 17.99 21.98 17.99 24 19 C24.33 17.68 24.66 16.36 25 15 C23.68 14.67 22.36 14.34 21 14 Z M7 15 C8 17 8 17 8 17 Z M16 18 C17 20 17 20 17 20 Z M-3 20 C-3.33 21.32 -3.66 22.64 -4 24 C-3.67 23.34 -3.34 22.68 -3 22 C-1.68 22 -0.36 22 1 22 C1 21.34 1 20.68 1 20 C-0.32 20 -1.64 20 -3 20 Z M-5 24 C-4 27 -4 27 -4 27 Z " fill="#B8B8B8" transform="translate(10,4)"/>
<path d="M0 0 C2.66666667 0.66666667 5.33333333 1.33333333 8 2 C8 3.32 8 4.64 8 6 C8.66 6 9.32 6 10 6 C10 7.32 10 8.64 10 10 C9.34 10 8.68 10 8 10 C7.67 11.65 7.34 13.3 7 15 C1.55106131 16.19876651 -1.22169095 15.91360308 -6 13 C-6.53625 13.639375 -7.0725 14.27875 -7.625 14.9375 C-10.49745405 17.43199957 -12.21964825 17.91956698 -16 18 C-17.875 16.5625 -17.875 16.5625 -19 15 C-18.38125 14.79375 -17.7625 14.5875 -17.125 14.375 C-14.15346355 12.45224112 -13.86975341 10.33405473 -13 7 C-11.5459375 7.0309375 -11.5459375 7.0309375 -10.0625 7.0625 C-7.12534105 7.35618499 -7.12534105 7.35618499 -6 6 C-6.66 5.67 -7.32 5.34 -8 5 C-8 4.01 -8 3.02 -8 2 C-5.36 2 -2.72 2 0 2 C0 1.34 0 0.68 0 0 Z M0 6 C-0.33 6.99 -0.66 7.98 -1 9 C0.98 9.99 0.98 9.99 3 11 C3.33 9.68 3.66 8.36 4 7 C2.68 6.67 1.36 6.34 0 6 Z M-5 10 C-4 12 -4 12 -4 12 Z " fill="#D7D7D7" transform="translate(31,12)"/>
<path d="M0 0 C11.5913256 -0.30910202 11.5913256 -0.30910202 15 2 C16 4.3125 16 4.3125 16 7 C15.484375 7.845625 14.96875 8.69125 14.4375 9.5625 C13.963125 10.366875 13.48875 11.17125 13 12 C13.74172877 14.15017528 13.74172877 14.15017528 15 16 C15 16.99 15 17.98 15 19 C13.35 19 11.7 19 10 19 C9.319375 17.5459375 9.319375 17.5459375 8.625 16.0625 C7.34213779 12.92920418 7.34213779 12.92920418 5 12 C5 14.31 5 16.62 5 19 C3.35 19 1.7 19 0 19 C0 12.73 0 6.46 0 0 Z M5 4 C5 5.32 5 6.64 5 8 C6.65 7.67 8.3 7.34 10 7 C9.67 6.01 9.34 5.02 9 4 C7.68 4 6.36 4 5 4 Z " fill="#E5E5E5" transform="translate(171,10)"/>
<path d="M0 0 C1.65 0 3.3 0 5 0 C5.33 1.65 5.66 3.3 6 5 C6.7425 4.175 7.485 3.35 8.25 2.5 C11 0 11 0 15 0 C14.42655063 2.86724686 14.1385485 3.8614515 12 6 C12.32548026 10.01425656 13.94974971 12.61262996 16 16 C16 16.99 16 17.98 16 19 C14.02 19 12.04 19 10 19 C9.01 17.02 8.02 15.04 7 13 C6.34 14.98 5.68 16.96 5 19 C3.35 19 1.7 19 0 19 C0 12.73 0 6.46 0 0 Z " fill="#E1E1E1" transform="translate(119,10)"/>
<path d="M0 0 C9.92391304 -0.35869565 9.92391304 -0.35869565 14.1875 1.0625 C16 3 16 3 16.4375 6.5625 C16 10 16 10 14 12 C11.34462628 12.56520003 8.70855287 12.73788198 6 13 C6 14.98 6 16.96 6 19 C4.02 19 2.04 19 0 19 C0 12.73 0 6.46 0 0 Z M6 4 C6 5.32 6 6.64 6 8 C7.65 7.67 9.3 7.34 11 7 C10.34 6.01 9.68 5.02 9 4 C8.01 4 7.02 4 6 4 Z " fill="#D7D7D7" transform="translate(82,10)"/>
<path d="M0 0 C2.4375 2 2.4375 2 4 4 C1.42786866 5.61949011 0.32330841 6.04408751 -2.75 5.625 C-3.4925 5.41875 -4.235 5.2125 -5 5 C-2.08596738 6.94268841 0.85808576 8.46395304 4 10 C4.3125 13.3125 4.3125 13.3125 4 17 C2 19 2 19 -1 20 C-4.51051021 19.97315097 -7.82369899 19.58815051 -11 18 C-11 16.68 -11 15.36 -11 14 C-10.01 13.67 -9.02 13.34 -8 13 C-7.01 13.66 -6.02 14.32 -5 15 C-4.01 15 -3.02 15 -2 15 C-1.67 14.34 -1.34 13.68 -1 13 C-1.9075 12.9175 -2.815 12.835 -3.75 12.75 C-7.48621179 11.88779728 -8.85835656 11.1696323 -11 8 C-10.9375 4.875 -10.9375 4.875 -10 2 C-6.2794164 -0.48038907 -4.40203429 -0.46337203 0 0 Z " fill="#DADADA" transform="translate(52,10)"/>
<path d="M0 0 C2.76349999 0.4115851 4.57546524 0.98394015 6.9375 2.4375 C6.2775 3.7575 5.6175 5.0775 4.9375 6.4375 C2.6275 5.7775 0.3175 5.1175 -2.0625 4.4375 C-2.0625 5.4275 -2.0625 6.4175 -2.0625 7.4375 C-1.155 7.52 -0.2475 7.6025 0.6875 7.6875 C4.39850241 8.54388517 5.77392572 9.32195304 7.9375 12.4375 C7.9375 15.52088466 7.35533187 16.91521017 5.4375 19.3125 C1.68700299 21.00022366 -2.18559276 20.80714097 -6.0625 19.4375 C-7.3359375 17.37890625 -7.3359375 17.37890625 -8.0625 15.4375 C-6.7425 14.7775 -5.4225 14.1175 -4.0625 13.4375 C-4.0625 14.0975 -4.0625 14.7575 -4.0625 15.4375 C-2.4125 15.4375 -0.7625 15.4375 0.9375 15.4375 C1.2675 14.7775 1.5975 14.1175 1.9375 13.4375 C0.65875 13.23125 -0.62 13.025 -1.9375 12.8125 C-4.1484375 12.28125 -4.1484375 12.28125 -6.0625 11.4375 C-7.5625 8.3125 -7.5625 8.3125 -8.0625 5.4375 C-3.91615854 0.55945122 -3.91615854 0.55945122 0 0 Z " fill="#DCDCDC" transform="translate(73.0625,9.5625)"/>
<path d="M0 0 C1.98 0 3.96 0 6 0 C7.00605593 2.60197202 8.00502525 5.20629362 9 7.8125 C9.28617188 8.55048828 9.57234375 9.28847656 9.8671875 10.04882812 C10.13789062 10.76103516 10.40859375 11.47324219 10.6875 12.20703125 C10.93886719 12.8616333 11.19023438 13.51623535 11.44921875 14.19067383 C12 16 12 16 12 19 C10.35 19 8.7 19 7 19 C6.67 17.68 6.34 16.36 6 15 C4.02 15 2.04 15 0 15 C-0.33 16.32 -0.66 17.64 -1 19 C-2.65 19 -4.3 19 -6 19 C-5.28739906 14.71620357 -3.93078264 10.74906147 -2.4375 6.6875 C-2.20353516 6.04232422 -1.96957031 5.39714844 -1.72851562 4.73242188 C-1.15552993 3.15378781 -0.57820536 1.57672974 0 0 Z M2 7 C1.67 8.32 1.34 9.64 1 11 C1.99 11 2.98 11 4 11 C3.34 9.68 2.68 8.36 2 7 Z " fill="#E2E2E2" transform="translate(105,10)"/>
<path d="M0 0 C4.62 0 9.24 0 14 0 C14 1.32 14 2.64 14 4 C11.03 4 8.06 4 5 4 C5 5.32 5 6.64 5 8 C6.98 8 8.96 8 11 8 C11 9.32 11 10.64 11 12 C9.02 12 7.04 12 5 12 C5 12.99 5 13.98 5 15 C7.97 15 10.94 15 14 15 C14 16.32 14 17.64 14 19 C9.38 19 4.76 19 0 19 C0 12.73 0 6.46 0 0 Z " fill="#DFDFDF" transform="translate(155,10)"/>
<path d="M0 0 C2.875 2.375 2.875 2.375 5 5 C5 5.66 5 6.32 5 7 C1.37471432 7.20140476 -0.86501708 6.85776765 -4 5 C-5.20561184 5.98267859 -5.20561184 5.98267859 -5.09765625 7.84765625 C-5.08605469 8.57855469 -5.07445312 9.30945313 -5.0625 10.0625 C-5.041875 11.361875 -5.02125 12.66125 -5 14 C-3.35 14.33 -1.7 14.66 0 15 C0.33 14.01 0.66 13.02 1 12 C2.32 12.33 3.64 12.66 5 13 C4.69542509 15.94422416 4.16507321 16.85920226 1.875 18.8125 C-1.87852452 20.36286882 -4.10290612 20.01035767 -8 19 C-10.04943952 17.41458452 -10.87829198 16.4113423 -11.6171875 13.9140625 C-12.04837925 10.08560244 -12.28502209 7.66980191 -10.75 4.0625 C-7.46242705 0.18786045 -4.95555443 -0.69377762 0 0 Z " fill="#DADADA" transform="translate(148,10)"/>
<path d="M0 0 C1.65 0 3.3 0 5 0 C5 6.27 5 12.54 5 19 C3.35 19 1.7 19 0 19 C0 12.73 0 6.46 0 0 Z " fill="#DFDFDF" transform="translate(58,10)"/>
<path d="M0 0 C1.98 0 3.96 0 6 0 C6.75 2.75 6.75 2.75 7 6 C4.94138363 9.04675223 3.45061642 9.8620562 -0.0625 10.9375 C-3 11 -3 11 -4.875 9.5625 C-5.431875 8.7890625 -5.431875 8.7890625 -6 8 C-5.38125 7.79375 -4.7625 7.5875 -4.125 7.375 C-1.15346355 5.45224112 -0.86975341 3.33405473 0 0 Z " fill="#F7F7F7" transform="translate(18,19)"/>
<path d="M0 0 C1.98 0 3.96 0 6 0 C6 1.98 6 3.96 6 6 C6.515625 5.649375 7.03125 5.29875 7.5625 4.9375 C11.0507008 3.59588431 13.42525344 4.07321385 17 5 C18.4375 7.0625 18.4375 7.0625 19 9 C18.34 9.66 17.68 10.32 17 11 C16.34 10.01 15.68 9.02 15 8 C12.56306689 7.63583953 12.56306689 7.63583953 9.875 7.8125 C8.96492188 7.83957031 8.05484375 7.86664062 7.1171875 7.89453125 C6.41851562 7.92933594 5.71984375 7.96414062 5 8 C4.34 6.68 3.68 5.36 3 4 C2.01 4.99 1.02 5.98 0 7 C0 4.69 0 2.38 0 0 Z " fill="#C3C3C3" transform="translate(10,4)"/>
<path d="M0 0 C2 2 2 2 2 5 C3.70112992 5.80469849 3.70112992 5.80469849 6 6 C10.28611247 4.40485216 10.28611247 4.40485216 13 1 C13.99 1.33 14.98 1.66 16 2 C14.5435664 5.83968859 12.71785783 7.31006462 9 9 C4.38357622 9.57705297 1.68719893 8.8444106 -2 6 C-2.33 5.01 -2.66 4.02 -3 3 C-2.01 2.67 -1.02 2.34 0 2 C0 1.34 0 0.68 0 0 Z " fill="#9F9F9F" transform="translate(11,24)"/>
<path d="M0 0 C0.66 0.33 1.32 0.66 2 1 C1.67 3.31 1.34 5.62 1 8 C-0.98 8 -2.96 8 -5 8 C-5.1875 5.625 -5.1875 5.625 -5 3 C-4.01 2.34 -3.02 1.68 -2 1 C-1.67 1.33 -1.34 1.66 -1 2 C-0.67 1.34 -0.34 0.68 0 0 Z " fill="#C2C2C2" transform="translate(7,26)"/>
<path d="M0 0 C0.99 0.33 1.98 0.66 3 1 C1.63016497 4.16115776 1.0109362 4.9927092 -2 7 C-4.33199388 7.07905064 -6.66832622 7.08798769 -9 7 C-6.62624557 4.25144224 -4.33642103 3.3170083 -1 2 C-0.67 1.34 -0.34 0.68 0 0 Z " fill="#B5B5B5" transform="translate(24,25)"/>
<path d="M0 0 C3.875 4.75 3.875 4.75 5 7 C4.01 8.485 4.01 8.485 3 10 C0.9375 7.8125 0.9375 7.8125 -1 5 C-0.75 2.1875 -0.75 2.1875 0 0 Z " fill="#B1B1B1" transform="translate(12,9)"/>
<path d="M0 0 C1.65 0 3.3 0 5 0 C5 1.32 5 2.64 5 4 C4.34 4 3.68 4 3 4 C1.37485532 5.45833358 1.37485532 5.45833358 0 7 C0 4.69 0 2.38 0 0 Z " fill="#E8E8E8" transform="translate(10,4)"/>
<path d="M0 0 C-0.66 1.32 -1.32 2.64 -2 4 C-2.66 3.01 -3.32 2.02 -4 1 C-6.56282742 0.27034634 -6.56282742 0.27034634 -9 0 C-9 -0.33 -9 -0.66 -9 -1 C-5.22102349 -2.0497157 -3.35080929 -2.10976881 0 0 Z " fill="#999999" transform="translate(29,11)"/>
<path d="M0 0 C0.66 0 1.32 0 2 0 C2 0.66 2 1.32 2 2 C1.34 2 0.68 2 0 2 C0 1.34 0 0.68 0 0 Z " fill="#FFFFFF" transform="translate(21,12)"/>
</svg>
